<svg xmlns="http://www.w3.org/2000/svg" width="1em" height="1em" viewBox="0 0 1em 1em">
  <g id="alarm" transform="translate(-46.973 -30)">
    <g id="Group_1307" data-name="Group 1307" transform="translate(46.973 30)">
      <g id="Group_1306" data-name="Group 1306" transform="translate(0)">
        <path id="Path_309" data-name="Path 309" d="M246.478,1.8a.474.474,0,0,0,.478-.469V.469a.479.479,0,0,0-.957,0v.862A.474.474,0,0,0,246.478,1.8Z" transform="translate(-236.478 0)" fill="currentcolor"/>
        <path id="Path_310" data-name="Path 310" d="M337.774,28.666a.484.484,0,0,0,.652-.177l.462-.8a.464.464,0,0,0-.181-.639.484.484,0,0,0-.652.177l-.462.8A.464.464,0,0,0,337.774,28.666Z" transform="translate(-323.631 -25.724)" fill="currentcolor"/>
        <path id="Path_311" data-name="Path 311" d="M400.257,99.977a.484.484,0,0,0,.231-.058l.883-.478a.464.464,0,0,0,.188-.637.484.484,0,0,0-.65-.184l-.883.478a.464.464,0,0,0-.188.637A.48.48,0,0,0,400.257,99.977Z" transform="translate(-382.9 -93.942)" fill="currentcolor"/>
        <path id="Path_312" data-name="Path 312" d="M426.915,199.147h-.934a.469.469,0,1,0,0,.937h.934a.469.469,0,1,0,0-.937Z" transform="translate(-407.394 -189.812)" fill="currentcolor"/>
        <path id="Path_313" data-name="Path 313" d="M145.334,28.489a.484.484,0,0,0,.652.177.464.464,0,0,0,.181-.639l-.462-.8a.484.484,0,0,0-.652-.177.464.464,0,0,0-.181.639Z" transform="translate(-140.13 -25.725)" fill="currentcolor"/>
        <path id="Path_314" data-name="Path 314" d="M74.008,99.442l.883.478a.484.484,0,0,0,.65-.184.464.464,0,0,0-.188-.637l-.883-.478a.484.484,0,0,0-.65.184.464.464,0,0,0,.188.637Z" transform="translate(-72.48 -93.942)" fill="currentcolor"/>
        <path id="Path_315" data-name="Path 315" d="M48.385,200.084a.469.469,0,1,0,0-.937h-.934a.469.469,0,1,0,0,.937Z" transform="translate(-46.973 -189.812)" fill="currentcolor"/>
        <path id="Path_316" data-name="Path 316" d="M72.767,85.333H71.595V82.453a.474.474,0,0,0-.478-.469h-1V73.965a6.545,6.545,0,0,0-13.088,0v8.019h-1a.474.474,0,0,0-.478.469v2.879H54.387a.474.474,0,0,0-.478.469V87.92a.474.474,0,0,0,.478.469h18.38a.474.474,0,0,0,.478-.469V85.8A.474.474,0,0,0,72.767,85.333ZM57.99,73.965a5.588,5.588,0,0,1,11.174,0v8.019H65.017V77.561A2.478,2.478,0,0,0,66.129,75.5a2.552,2.552,0,0,0-5.1,0,2.479,2.479,0,0,0,1.111,2.063v4.424H57.99Zm4.848,2.916a1.555,1.555,0,0,1-.855-1.384,1.595,1.595,0,0,1,3.189,0,1.555,1.555,0,0,1-.855,1.384.468.468,0,0,0-.256.415v4.688h-.966V77.3A.468.468,0,0,0,62.838,76.881Zm9.451,10.57H54.866V86.27h6.549a.469.469,0,1,0,0-.937h-4.9V82.922H70.638v2.411h-4.9a.469.469,0,1,0,0,.938h6.549Z" transform="translate(-53.577 -64.388)" fill="currentcolor"/>
        <path id="Path_317" data-name="Path 317" d="M247.117,447.105a.481.481,0,0,0-.9.043.467.467,0,0,0,.173.513.491.491,0,0,0,.537.022A.468.468,0,0,0,247.117,447.105Z" transform="translate(-236.666 -425.871)" fill="currentcolor"/>
      </g>
    </g>
  </g>
</svg>
