<svg id="dashboard_3_" data-name="dashboard (3)" xmlns="http://www.w3.org/2000/svg" width="1em" height="1em" viewBox="0 0 20 20">
  <path id="Path_318" data-name="Path 318" d="M7.708,6.667H1.458A1.46,1.46,0,0,1,0,5.208V1.458A1.46,1.46,0,0,1,1.458,0h6.25A1.46,1.46,0,0,1,9.167,1.458v3.75A1.46,1.46,0,0,1,7.708,6.667ZM1.458,1.25a.208.208,0,0,0-.208.208v3.75a.208.208,0,0,0,.208.208h6.25a.209.209,0,0,0,.208-.208V1.458a.208.208,0,0,0-.208-.208Zm0,0" fill="#fff"/>
  <path id="Path_319" data-name="Path 319" d="M7.708,225H1.458A1.46,1.46,0,0,1,0,223.541v-8.75a1.46,1.46,0,0,1,1.458-1.458h6.25a1.46,1.46,0,0,1,1.458,1.458v8.75A1.46,1.46,0,0,1,7.708,225Zm-6.25-10.417a.208.208,0,0,0-.208.208v8.75a.208.208,0,0,0,.208.208h6.25a.208.208,0,0,0,.208-.208v-8.75a.209.209,0,0,0-.208-.208Zm0,0" transform="translate(0 -204.999)" fill="#fff"/>
  <path id="Path_320" data-name="Path 320" d="M285.041,348h-6.25a1.46,1.46,0,0,1-1.459-1.458v-3.75a1.46,1.46,0,0,1,1.459-1.458h6.25a1.46,1.46,0,0,1,1.458,1.458v3.75A1.46,1.46,0,0,1,285.041,348Zm-6.25-5.417a.209.209,0,0,0-.209.208v3.75a.208.208,0,0,0,.209.208h6.25a.208.208,0,0,0,.208-.208v-3.75a.209.209,0,0,0-.208-.208Zm0,0" transform="translate(-266.499 -327.999)" fill="#fff"/>
  <path id="Path_321" data-name="Path 321" d="M285.041,11.667h-6.25a1.46,1.46,0,0,1-1.459-1.458V1.458A1.46,1.46,0,0,1,278.791,0h6.25A1.46,1.46,0,0,1,286.5,1.458v8.75A1.46,1.46,0,0,1,285.041,11.667ZM278.791,1.25a.208.208,0,0,0-.209.208v8.75a.209.209,0,0,0,.209.208h6.25a.208.208,0,0,0,.208-.208V1.458a.208.208,0,0,0-.208-.208Zm0,0" transform="translate(-266.499)" fill="#fff"/>
</svg>
