<svg xmlns="http://www.w3.org/2000/svg" width="24" height="24" viewBox="0 0 24 24">
  <g id="settings_1_" data-name="settings (1)" transform="translate(0)">
    <path id="Path_81" data-name="Path 81" d="M37.951,25.854a1.876,1.876,0,0,0-1.326-.545H35.286a8.105,8.105,0,0,0-1.028-2.463l.947-.941a1.852,1.852,0,0,0,0-2.633,1.885,1.885,0,0,0-2.652,0l-.947.941a8.228,8.228,0,0,0-2.481-1.021v-1.33a1.866,1.866,0,0,0-1.5-1.824A1.915,1.915,0,0,0,27.25,16a1.876,1.876,0,0,0-1.326.545,1.849,1.849,0,0,0-.549,1.316v1.33a8.228,8.228,0,0,0-2.481,1.021l-.947-.941a1.885,1.885,0,0,0-2.652,0,1.853,1.853,0,0,0,0,2.633l.947.941a8.105,8.105,0,0,0-1.028,2.463H17.875A1.868,1.868,0,0,0,16,27.17a1.849,1.849,0,0,0,.549,1.316,1.876,1.876,0,0,0,1.326.545h1.339a8.105,8.105,0,0,0,1.028,2.463l-.947.941a1.852,1.852,0,0,0,0,2.633,1.885,1.885,0,0,0,2.652,0l.947-.941a8.228,8.228,0,0,0,2.481,1.021v1.33a1.868,1.868,0,0,0,1.875,1.862,1.915,1.915,0,0,0,.375-.037,1.876,1.876,0,0,0,.951-.508,1.849,1.849,0,0,0,.549-1.316v-1.33a8.228,8.228,0,0,0,2.481-1.021l.947.941a1.885,1.885,0,0,0,2.652,0,1.853,1.853,0,0,0,0-2.633l-.947-.941a8.105,8.105,0,0,0,1.028-2.463h1.339A1.868,1.868,0,0,0,38.5,27.17,1.849,1.849,0,0,0,37.951,25.854ZM27.625,31.622q-.186.016-.375.016a4.468,4.468,0,1,1,0-8.936q.189,0,.375.016a4.465,4.465,0,0,1,0,8.9Z" transform="translate(-15.25 -15.255)" fill="none"/>
    <path id="Path_82" data-name="Path 82" d="M274.875,27.92a1.9,1.9,0,0,1-1.908,1.874h-1.306a8.105,8.105,0,0,1-1.028,2.463l.947.941a1.853,1.853,0,0,1,0,2.633,1.885,1.885,0,0,1-2.652,0l-.947-.941a8.228,8.228,0,0,1-2.481,1.021v1.33a1.849,1.849,0,0,1-.549,1.316,1.876,1.876,0,0,1-.951.508V34.839a.65.65,0,0,1,.555-.644,6.324,6.324,0,0,0,0-12.525.65.65,0,0,1-.555-.644V16.8a1.866,1.866,0,0,1,1.5,1.824v1.33a8.228,8.228,0,0,1,2.481,1.021l.947-.941a1.885,1.885,0,0,1,2.652,0,1.852,1.852,0,0,1,0,2.633l-.947.941a8.105,8.105,0,0,1,1.028,2.463H273a1.876,1.876,0,0,1,1.326.545A1.849,1.849,0,0,1,274.875,27.92Z" transform="translate(-252.585 -15.065)" fill="none"/>
    <g id="Group_59" data-name="Group 59" transform="translate(0 0)">
      <path id="Path_83" data-name="Path 83" d="M12,23.829a2.619,2.619,0,0,1-2.625-2.606v-.759A8.95,8.95,0,0,1,7.768,19.8l-.541.537a2.616,2.616,0,1,1-3.712-3.686l.541-.537a8.82,8.82,0,0,1-.666-1.6H2.625a2.617,2.617,0,0,1-1.856-.764A2.58,2.58,0,0,1,0,11.914,2.619,2.619,0,0,1,2.625,9.308h.764a8.815,8.815,0,0,1,.666-1.6l-.541-.537a2.594,2.594,0,0,1,0-3.686,2.642,2.642,0,0,1,3.712,0l.541.537a8.953,8.953,0,0,1,1.607-.661V2.606A2.58,2.58,0,0,1,10.144.764,2.617,2.617,0,0,1,12,0a2.68,2.68,0,0,1,.523.052,2.619,2.619,0,0,1,2.1,2.554v.759a8.95,8.95,0,0,1,1.607.661l.541-.537a2.616,2.616,0,1,1,3.712,3.686l-.541.537a8.82,8.82,0,0,1,.666,1.6h.764a2.617,2.617,0,0,1,1.856.764A2.58,2.58,0,0,1,24,11.914a2.619,2.619,0,0,1-2.625,2.606h-.764a8.815,8.815,0,0,1-.666,1.6l.541.537a2.594,2.594,0,0,1,0,3.686,2.642,2.642,0,0,1-3.712,0l-.541-.537a8.953,8.953,0,0,1-1.607.661v.758a2.58,2.58,0,0,1-.769,1.843,2.62,2.62,0,0,1-1.332.711h0a2.68,2.68,0,0,1-.523.052Zm.375-.782h0ZM7.644,18.128a.752.752,0,0,1,.4.113,7.464,7.464,0,0,0,2.254.927.746.746,0,0,1,.581.725v1.33A1.122,1.122,0,0,0,12,22.339a1.166,1.166,0,0,0,.226-.022,1.122,1.122,0,0,0,.569-.3,1.106,1.106,0,0,0,.33-.79v-1.33a.746.746,0,0,1,.58-.725,7.464,7.464,0,0,0,2.254-.927.754.754,0,0,1,.927.106l.947.941a1.132,1.132,0,0,0,1.591,0,1.112,1.112,0,0,0,0-1.58l-.947-.941a.741.741,0,0,1-.106-.92,7.352,7.352,0,0,0,.934-2.238.749.749,0,0,1,.731-.576h1.339A1.122,1.122,0,0,0,22.5,11.914a1.105,1.105,0,0,0-.33-.79,1.121,1.121,0,0,0-.8-.327H20.036a.749.749,0,0,1-.731-.576,7.351,7.351,0,0,0-.934-2.238.741.741,0,0,1,.106-.92l.947-.941a1.121,1.121,0,0,0-1.591-1.58l-.947.941a.754.754,0,0,1-.927.106,7.464,7.464,0,0,0-2.254-.927.746.746,0,0,1-.58-.725V2.606a1.122,1.122,0,0,0-.9-1.095A1.164,1.164,0,0,0,12,1.489a1.122,1.122,0,0,0-.8.327,1.106,1.106,0,0,0-.33.79v1.33a.746.746,0,0,1-.581.725,7.464,7.464,0,0,0-2.254.927.754.754,0,0,1-.927-.106l-.947-.941a1.132,1.132,0,0,0-1.591,0,1.112,1.112,0,0,0,0,1.58l.947.941a.741.741,0,0,1,.106.92,7.352,7.352,0,0,0-.934,2.238.749.749,0,0,1-.731.576H2.625A1.122,1.122,0,0,0,1.5,11.914a1.105,1.105,0,0,0,.33.79,1.121,1.121,0,0,0,.8.327H3.964a.749.749,0,0,1,.731.576,7.351,7.351,0,0,0,.934,2.238.741.741,0,0,1-.106.92l-.947.941a1.121,1.121,0,0,0,1.591,1.58l.947-.941a.752.752,0,0,1,.531-.218Z" transform="translate(0 0)" fill="#95a5b8"/>
    </g>
    <g id="Group_60" data-name="Group 60" transform="translate(6.75 6.702)">
      <path id="Path_84" data-name="Path 84" d="M149.25,154.425a5.213,5.213,0,1,1,0-10.425c.149,0,.3.006.44.019a5.243,5.243,0,0,1,3.414,1.654,5.186,5.186,0,0,1,0,7.079,5.245,5.245,0,0,1-3.418,1.655C149.547,154.419,149.4,154.425,149.25,154.425Zm0-8.936a3.723,3.723,0,1,0,0,7.446c.106,0,.21,0,.31-.013a3.721,3.721,0,0,0,0-7.42C149.46,145.494,149.356,145.489,149.25,145.489Z" transform="translate(-144 -144)" fill="#95a5b8"/>
    </g>
  </g>
</svg>
