<svg xmlns="http://www.w3.org/2000/svg" width="1em" height="1em" viewBox="0 0 25 25">
  <path id="energy_1_" data-name="energy (1)" d="M12.5,20.867a5.489,5.489,0,0,1-5.468-5.5v-4.66H6.667a.419.419,0,0,1,0-.838H8.855V5.525a.417.417,0,1,1,.833,0V9.871h5.625V5.525a.417.417,0,1,1,.833,0V9.871h2.187a.419.419,0,0,1,0,.838H7.865v4.66a4.635,4.635,0,1,0,9.27,0V12.123a.417.417,0,1,1,.833,0v3.246A5.489,5.489,0,0,1,12.5,20.867Zm0-2.775a.416.416,0,0,0,.373-.232l1.25-2.513a.419.419,0,0,0-.373-.606H11.925l.948-1.907a.42.42,0,0,0-.186-.562.416.416,0,0,0-.559.187l-1.25,2.513a.419.419,0,0,0,.373.606h1.826l-.948,1.907a.419.419,0,0,0,.372.606Zm11.448-.323a.416.416,0,0,0-.537.243,11.7,11.7,0,0,1-9.044,7.418,1.253,1.253,0,0,1-1.449-1.241V22.7h.469a.419.419,0,0,0,0-.838H11.615a.419.419,0,0,0,0,.838h.469v1.49A2.088,2.088,0,0,0,14.5,26.257a12.539,12.539,0,0,0,9.691-7.948A.42.42,0,0,0,23.948,17.769Zm.451-1.757a.417.417,0,0,0-.5.321q-.022.1-.046.207a.417.417,0,1,0,.811.191q.026-.111.05-.222a.419.419,0,0,0-.32-.5ZM12.5,1.284A12.379,12.379,0,0,0,3.662,4.977,12.6,12.6,0,0,0,4.868,23.8a.413.413,0,0,0,.254.087c.395,0,.893-.657.578-.9A11.714,11.714,0,0,1,.834,13.868a11.666,11.666,0,1,1,23.332-.018.417.417,0,1,0,.833,0A12.526,12.526,0,0,0,12.5,1.284Z" transform="translate(0.001 -1.284)" fill="currentcolor"/>
</svg>
